<svg width="45" height="48" viewBox="0 0 45 48" fill="none" xmlns="http://www.w3.org/2000/svg">
<path d="M23.933 22.5C23.0706 22.5332 23.5522 23.6788 23.9881 23.9333C25.1693 24.623 26.4889 23.5138 26.7996 22.3897C27.3555 20.379 25.6772 18.5291 23.7676 18.2C20.9652 17.7171 18.5225 20.0293 18.1997 22.7205C17.7694 26.3075 20.7364 29.3596 24.2086 29.6666C28.5781 30.053 32.2464 26.4224 32.5329 22.1692C32.8799 17.0181 28.5812 12.73 23.5471 12.4667C17.6146 12.1565 12.7048 17.1261 12.4664 22.941C12.1912 29.6546 17.8333 35.1876 24.4291 35.3999C31.9237 35.6411 38.0808 29.3254 38.2662 21.9487C38.4743 13.6732 31.4841 6.89147 23.3266 6.73346C14.2702 6.55803 6.86328 14.2232 6.73313 23.1615C6.58989 32.9988 14.9305 41.0312 24.6497 41.1332C35.2677 41.2446 43.926 32.2282 43.9995 21.7282C44.0793 10.3293 34.3869 1.04499 23.1061 1.00017C10.9264 0.951772 1.01583 11.3204 0.999842 23.382C0.982665 36.3425 12.0277 46.8795 24.8702 46.8665C32.0418 46.8592 38.9722 43.6089 43.6312 38.169" stroke="#0A3B4B" stroke-width="2" stroke-linecap="round"/>
</svg>
