<svg width="48" height="48" viewBox="0 0 48 48" fill="none" xmlns="http://www.w3.org/2000/svg">
<path d="M47.6476 15.0876C46.7125 12.2189 43.803 10.3867 40.8097 10.5397C41.5461 9.42862 41.9346 8.14322 41.9346 6.79659C41.9346 3.04894 38.8836 0 35.1334 0C33.4136 0 31.7733 0.642469 30.5127 1.80947L11.6593 17.2755C11.6359 17.2946 11.6147 17.3153 11.5944 17.3367C9.66471 19.0137 8.4427 21.4841 8.4427 24.2345C8.4427 25.0689 8.55584 25.8774 8.76645 26.646C8.76645 26.646 3.43703 31.6532 2.26127 32.8497C0.985037 34.1484 0 36.5608 0 38.8598C0 43.8998 4.10301 48 9.14639 48C12.9441 48 16.2083 45.6748 17.5892 42.3743C18.97 45.6748 22.2342 48 26.0318 48C29.6628 48 32.8063 45.8745 34.2822 42.8032L47.1309 20.7496C47.5885 19.9639 46.3722 19.2564 45.9147 20.0422L35.1698 38.4837C34.9717 33.6175 30.9491 29.7196 26.0318 29.7196C25.6311 29.7196 25.2364 29.7458 24.8491 29.7959C24.8491 29.7959 37.2501 15.0115 39.4761 12.2802C42.0802 11.0645 45.4666 12.9373 46.3096 15.5232C46.787 16.9877 46.6577 18.6065 45.9549 19.9644C45.537 20.772 46.787 21.4179 47.2048 20.6105C48.0796 18.9203 48.2409 16.9073 47.6476 15.0876ZM31.4275 2.87841C32.5129 1.9875 33.693 1.40625 35.1334 1.40625C38.1077 1.40625 40.5275 3.82434 40.5275 6.79669C40.5275 7.96613 40.1596 9.07753 39.4633 10.0118C39.4633 10.0118 27.517 24.3652 26.6619 25.3966C26.7105 25.016 26.7355 24.628 26.7355 24.2345C26.7355 19.1946 22.6325 15.0942 17.5892 15.0942C17.2034 15.0942 16.8232 15.1185 16.4499 15.165L31.4275 2.87841ZM17.5891 16.5005C21.8565 16.5005 25.3282 19.9699 25.3282 24.2345C25.3282 28.4231 21.7838 31.9684 17.5891 31.9684C13.3217 31.9684 9.8499 28.499 9.8499 24.2345C9.84999 19.97 13.3217 16.5005 17.5891 16.5005ZM18.7796 33.2973C18.2991 33.9215 17.8972 34.6089 17.5891 35.3452C17.281 34.6089 16.8791 33.9215 16.3986 33.2973C16.7884 33.3481 17.1857 33.3746 17.5891 33.3746C17.9925 33.3746 18.3899 33.3481 18.7796 33.2973ZM9.29509 28.0846C9.57991 28.6949 9.93011 29.2687 10.3369 29.7969C9.94709 29.7461 9.54979 29.7196 9.14639 29.7196C8.5489 29.7196 7.96473 29.7778 7.39885 29.8877L9.29509 28.0846ZM9.14639 46.5938C4.87903 46.5938 1.4072 43.1243 1.4072 38.8598C1.4072 36.884 2.15338 35.0798 3.37764 33.7113C4.88925 32.1157 6.9188 31.1258 9.14639 31.1258C13.4138 31.1258 16.8856 34.5952 16.8856 38.8598C16.8856 43.1244 13.4138 46.5938 9.14639 46.5938ZM33.771 38.8598C33.771 43.1243 30.2993 46.5938 26.0318 46.5938C21.7644 46.5938 18.2927 43.1243 18.2927 38.8598C18.2927 34.5952 21.7644 31.1258 26.0318 31.1258C30.2993 31.1258 33.771 34.5953 33.771 38.8598Z" fill="#0A3B4B"/>
<path d="M9.14765 32.0632C5.39757 32.0632 2.34668 35.1121 2.34668 38.8597C2.34668 42.6074 5.39757 45.6561 9.14765 45.6561C12.8977 45.6561 15.9487 42.6073 15.9487 38.8596C15.9487 35.112 12.8977 32.0632 9.14765 32.0632ZM9.14765 44.2499C6.1735 44.2499 3.75388 41.8319 3.75388 38.8596C3.75388 35.8874 6.1735 33.4694 9.14765 33.4694C12.1218 33.4694 14.5415 35.8874 14.5415 38.8596C14.5415 41.8319 12.1218 44.2499 9.14765 44.2499Z" fill="#0A3B4B"/>
<path d="M17.4836 17.3853C13.7335 17.3853 10.6826 20.4341 10.6826 24.1818C10.6826 27.9294 13.7335 30.9782 17.4836 30.9782C21.2337 30.9782 24.2847 27.9293 24.2847 24.1817C24.2847 20.434 21.2337 17.3853 17.4836 17.3853ZM17.4836 29.5719C14.5094 29.5719 12.0898 27.1539 12.0898 24.1817C12.0898 21.2094 14.5094 18.7914 17.4836 18.7914C20.4577 18.7914 22.8775 21.2094 22.8775 24.1817C22.8775 27.1539 20.4577 29.5719 17.4836 29.5719Z" fill="#0A3B4B"/>
<path d="M26.0335 45.656C29.7836 45.656 32.8345 42.6071 32.8345 38.8595C32.8345 35.1118 29.7836 32.063 26.0335 32.063C22.2834 32.063 19.2324 35.1118 19.2324 38.8595C19.2324 42.6071 22.2834 45.656 26.0335 45.656ZM26.0335 33.4693C29.0076 33.4693 31.4273 35.8873 31.4273 38.8596C31.4273 41.8318 29.0076 44.2497 26.0335 44.2497C23.0593 44.2497 20.6396 41.8317 20.6396 38.8595C20.6396 35.8872 23.0593 33.4693 26.0335 33.4693Z" fill="#0A3B4B"/>
</svg>
