<svg width="48" height="34" viewBox="0 0 48 34" fill="none" xmlns="http://www.w3.org/2000/svg">
<path d="M39.1505 14.0724C38.6194 13.9204 38.0659 14.2279 37.9141 14.7589C37.7622 15.2899 38.0696 15.8435 38.6005 15.9953C43.1649 17.3007 46.0003 19.1941 46.0003 20.9366C46.0003 22.2118 44.4493 23.6115 41.7451 24.7768C38.7699 26.0588 34.5493 26.9968 29.856 27.4193L25.7597 27.3638C25.755 27.3638 25.7504 27.3637 25.7458 27.3637C25.1998 27.3637 24.7536 27.8026 24.7462 28.3502C24.7387 28.9024 25.1804 29.3562 25.7325 29.3636L29.8804 29.4198C29.885 29.4198 29.8895 29.4199 29.894 29.4199C29.9237 29.4199 29.9533 29.4186 29.9828 29.416C34.9024 28.9774 39.3607 27.9821 42.5366 26.6136C47.0524 24.6675 48.0003 22.4523 48.0003 20.9366C48.0003 18.1423 44.8573 15.7045 39.1505 14.0724Z" fill="#0A3B4B"/>
<path d="M9.6875 12.9333C9.1353 12.9333 8.6875 13.381 8.6875 13.9333C8.6875 14.4856 9.1353 14.9333 9.6875 14.9333H13.7996V19.0666H9.6875C9.1353 19.0666 8.6875 19.5143 8.6875 20.0666C8.6875 20.6189 9.1353 21.0666 9.6875 21.0666H14.7996C15.3519 21.0666 15.7996 20.6189 15.7996 20.0666V7.80005C15.7996 7.24775 15.3519 6.80005 14.7996 6.80005H9.6875C9.1353 6.80005 8.6875 7.24775 8.6875 7.80005C8.6875 8.35235 9.1353 8.80005 9.6875 8.80005H13.7996V12.9333H9.6875Z" fill="#0A3B4B"/>
<path d="M18.8877 21.0667H25.0211C25.5733 21.0667 26.0211 20.619 26.0211 20.0667V13.9334C26.0211 13.3811 25.5734 12.9334 25.0211 12.9334H19.8877V8.80005H23.9998C24.5521 8.80005 24.9998 8.35235 24.9998 7.80005C24.9998 7.24775 24.5521 6.80005 23.9998 6.80005H18.8877C18.3354 6.80005 17.8877 7.24775 17.8877 7.80005V20.0667C17.8877 20.619 18.3354 21.0667 18.8877 21.0667ZM19.8877 14.9333H24.0211V19.0666H19.8877V14.9333Z" fill="#0A3B4B"/>
<path d="M29.1123 21.0667H35.2457C35.7979 21.0667 36.2457 20.619 36.2457 20.0667V7.80005C36.2457 7.24775 35.7979 6.80005 35.2457 6.80005H29.1123C28.5601 6.80005 28.1123 7.24775 28.1123 7.80005V20.0667C28.1123 20.619 28.5601 21.0667 29.1123 21.0667ZM30.1123 8.80005H34.2457V19.0667H30.1123V8.80005Z" fill="#0A3B4B"/>
<path d="M18.2857 23.5537C17.929 23.1321 17.298 23.0794 16.8764 23.4361C16.4547 23.7928 16.4021 24.4237 16.7587 24.8454L18.9953 27.4894C14.2757 27.1295 10.0012 26.2645 6.8583 25.0244C3.7708 23.806 2 22.3162 2 20.9367C2 19.3349 4.3736 17.6087 8.3493 16.3191C8.8747 16.1487 9.1624 15.5847 8.992 15.0593C8.8217 14.534 8.2575 14.2463 7.7323 14.4166C5.4194 15.1668 3.5853 16.0593 2.2808 17.0692C0.7674 18.2412 0 19.5423 0 20.9367C0 23.2471 2.1178 25.3038 6.1242 26.8847C9.3806 28.1696 13.7469 29.0716 18.5468 29.4605L16.5524 31.6709C16.1824 32.0809 16.2148 32.7133 16.6249 33.0832C16.8161 33.2558 17.0557 33.3408 17.2945 33.3408C17.5676 33.3408 17.8398 33.2295 18.0372 33.0107L21.6759 28.9782C21.8417 28.7945 21.9335 28.5558 21.9335 28.3083V28.2319C21.9335 27.9954 21.8497 27.7666 21.697 27.5861L18.2857 23.5537Z" fill="#0A3B4B"/>
<path d="M38.1416 6.74859H42.2295C42.7817 6.74859 43.2295 6.30089 43.2295 5.74859V1.65918C43.2295 1.10688 42.7817 0.65918 42.2295 0.65918H38.1416C37.5894 0.65918 37.1416 1.10688 37.1416 1.65918V5.74859C37.1416 6.30089 37.5894 6.74859 38.1416 6.74859ZM39.1416 2.65918H41.2295V4.74858H39.1416V2.65918Z" fill="#0A3B4B"/>
</svg>
