<svg width="47" height="53" viewBox="0 0 47 53" fill="none" xmlns="http://www.w3.org/2000/svg">
<path d="M24.0074 29.1488C23.9119 29.1281 23.8139 29.1244 23.7171 29.1389C22.7477 29.026 22.0164 28.2058 22.0147 27.2302C22.0147 26.7626 21.6356 26.3835 21.168 26.3835C20.7005 26.3835 20.3214 26.7626 20.3214 27.2302C20.3239 28.8594 21.4136 30.2865 22.9846 30.7177V31.5644C22.9846 32.0319 23.3637 32.411 23.8312 32.411C24.2988 32.411 24.6779 32.0319 24.6779 31.5644V30.769C26.4911 30.3895 27.7235 28.7007 27.5329 26.8581C27.3419 25.0155 25.7896 23.6153 23.9371 23.6149C22.8754 23.6149 22.0147 22.7541 22.0147 21.6925C22.0147 20.6309 22.8754 19.7701 23.9371 19.7701C24.9987 19.7701 25.8594 20.6309 25.8594 21.6925C25.8594 22.1601 26.2385 22.5392 26.7061 22.5392C27.1737 22.5392 27.5528 22.1601 27.5528 21.6925C27.5503 19.9818 26.3518 18.5063 24.6779 18.1533V17.3827C24.6779 16.9151 24.2988 16.536 23.8312 16.536C23.3637 16.536 22.9846 16.9151 22.9846 17.3827V18.205C21.2375 18.682 20.113 20.3783 20.3536 22.1733C20.5942 23.9683 22.1259 25.3082 23.9371 25.3078C24.9847 25.3078 25.8392 26.1466 25.8582 27.1938C25.8776 28.241 25.0541 29.1108 24.0074 29.1488Z" fill="#0A3B4B"/>
<path d="M11.6602 24.5264C11.6602 31.3072 17.1569 36.8039 23.9377 36.8039C30.7185 36.8039 36.2152 31.3072 36.2152 24.5264C36.2152 17.7456 30.7185 12.2489 23.9377 12.2489C17.1602 12.2563 11.668 17.7489 11.6602 24.5264ZM23.9377 13.9422C29.7833 13.9422 34.5219 18.6808 34.5219 24.5264C34.5219 30.3721 29.7833 35.1106 23.9377 35.1106C18.092 35.1106 13.3535 30.3721 13.3535 24.5264C13.3601 18.6837 18.0949 13.9489 23.9377 13.9422Z" fill="#0A3B4B"/>
<path d="M40.388 38.8912L33.7556 42.0248C32.8399 40.3216 31.0833 39.2376 29.1502 39.183L23.0276 39.0148C22.0581 38.9871 21.1069 38.7415 20.2449 38.2963L19.6219 37.9734C16.432 36.3107 12.6298 36.3148 9.44327 37.9842L9.48213 36.5728C9.49494 36.1052 9.12659 35.7158 8.65902 35.7029L1.94521 35.5181C1.47764 35.5053 1.08862 35.8737 1.0758 36.3413L0.670246 51.0744C0.657431 51.542 1.02578 51.9314 1.49335 51.9443L8.20716 52.129H8.23032C8.6892 52.129 9.06458 51.764 9.07698 51.3055L9.09641 50.6007L10.8406 49.6668C11.5252 49.2984 12.3256 49.2108 13.0734 49.4224L23.4889 52.3457C23.5071 52.3511 23.5253 52.3552 23.5439 52.3593C24.2968 52.5168 25.064 52.5958 25.833 52.5954C27.4618 52.5962 29.0717 52.2452 30.5521 51.5656C30.5885 51.549 30.6236 51.5296 30.6571 51.5077L45.7586 41.7396C46.1348 41.4961 46.2564 41.0021 46.036 40.6118C44.9149 38.6225 42.4282 37.8647 40.388 38.8912ZM2.38632 50.2749L2.74516 37.2342L7.76605 37.3723L7.40721 50.4134L2.38632 50.2749ZM29.7893 50.0533C27.9501 50.8834 25.8958 51.1125 23.9189 50.7086L13.5315 47.7928C12.3624 47.4625 11.111 47.5993 10.0415 48.1743L9.15016 48.6518L9.3887 39.9813C12.2131 38.1028 15.8354 37.9097 18.8434 39.477L19.4664 39.7999C20.5554 40.3621 21.7563 40.6722 22.9813 40.7077L29.1043 40.876C30.8241 40.9256 32.2847 42.1501 32.6336 43.8352L23.5133 43.5834C23.0458 43.5706 22.6567 43.9394 22.6435 44.4065C22.6307 44.8741 22.9995 45.2635 23.4666 45.2763L33.5316 45.5533H33.5551C34.0136 45.5529 34.3886 45.1879 34.401 44.7298C34.4113 44.3619 34.384 43.9935 34.3191 43.6314L41.1218 40.4171C41.1284 40.4142 41.135 40.4109 41.1416 40.4076C42.1066 39.9193 43.2732 40.0826 44.067 40.8173L29.7893 50.0533Z" fill="#0A3B4B"/>
<path d="M24.7822 9.86853V1.82518C24.7822 1.35761 24.4031 0.978516 23.9355 0.978516C23.468 0.978516 23.0889 1.35761 23.0889 1.82518V9.86853C23.0889 10.3361 23.468 10.7152 23.9355 10.7152C24.4031 10.7152 24.7822 10.3361 24.7822 9.86853Z" fill="#0A3B4B"/>
<path d="M31.1328 9.86859V6.05858C31.1328 5.59101 30.7537 5.21191 30.2861 5.21191C29.8186 5.21191 29.4395 5.59101 29.4395 6.05858V9.86859C29.4395 10.3362 29.8186 10.7153 30.2861 10.7153C30.7537 10.7153 31.1328 10.3362 31.1328 9.86859Z" fill="#0A3B4B"/>
<path d="M18.4336 9.86859V6.05858C18.4336 5.59101 18.0545 5.21191 17.5869 5.21191C17.1193 5.21191 16.7402 5.59101 16.7402 6.05858V9.86859C16.7402 10.3362 17.1193 10.7153 17.5869 10.7153C18.0545 10.7153 18.4336 10.3362 18.4336 9.86859Z" fill="#0A3B4B"/>
</svg>
