<svg width="560" height="498" viewBox="0 0 560 498" fill="none" xmlns="http://www.w3.org/2000/svg">
<path d="M0.0820312 120.767L427.281 120.829C456.667 120.833 471.361 120.836 481.121 126.974C489.667 132.349 495.865 140.757 498.471 150.512C501.446 161.651 497.1 175.687 488.408 203.759L467.287 271.969C463.581 283.937 461.728 289.921 458.396 294.842C455.447 299.198 451.667 302.929 447.273 305.822C442.31 309.09 436.302 310.865 424.287 314.416L0.0820312 439.767V120.767Z" fill="url(#paint0_linear)"/>
<path opacity="0.1" fill-rule="evenodd" clip-rule="evenodd" d="M310.602 0.76719C173.348 0.767178 62.0824 112.033 62.0824 249.287C62.0824 386.54 173.348 497.806 310.602 497.806C447.855 497.806 559.121 386.54 559.121 249.287C559.121 112.033 447.855 0.767202 310.602 0.76719ZM310.602 54.6629C203.114 54.6629 115.978 141.799 115.978 249.286C115.978 356.774 203.114 443.91 310.602 443.91C418.089 443.91 505.225 356.774 505.225 249.287C505.225 141.799 418.089 54.6629 310.602 54.6629Z" fill="url(#paint1_linear)"/>
<path opacity="0.2" fill-rule="evenodd" clip-rule="evenodd" d="M310.602 54.834C203.209 54.834 116.149 141.893 116.149 249.287C116.149 356.68 203.209 443.739 310.602 443.739C417.995 443.739 505.055 356.68 505.055 249.287C505.055 141.893 417.995 54.834 310.602 54.834ZM310.604 97.0042C226.501 97.0042 158.322 165.183 158.322 249.286C158.322 333.39 226.501 401.569 310.604 401.569C394.708 401.569 462.887 333.39 462.887 249.286C462.887 165.183 394.708 97.0042 310.604 97.0042Z" fill="url(#paint2_linear)"/>
<path opacity="0.25" fill-rule="evenodd" clip-rule="evenodd" d="M310.6 96.8864C226.433 96.8864 158.201 165.118 158.201 249.286C158.201 333.454 226.432 401.686 310.6 401.686C394.768 401.686 463 333.454 463 249.286C463 165.118 394.768 96.8864 310.6 96.8864ZM310.6 129.938C244.685 129.938 191.251 183.372 191.251 249.287C191.251 315.201 244.685 368.636 310.6 368.636C376.514 368.636 429.949 315.201 429.949 249.287C429.949 183.372 376.514 129.938 310.6 129.938Z" fill="url(#paint3_linear)"/>
<defs>
<linearGradient id="paint0_linear" x1="14.7677" y1="129.216" x2="220.373" y2="489.71" gradientUnits="userSpaceOnUse">
<stop stop-color="#FFA216"/>
<stop offset="1" stop-color="#FA8417"/>
</linearGradient>
<linearGradient id="paint1_linear" x1="310.602" y1="497.806" x2="310.602" y2="0.76719" gradientUnits="userSpaceOnUse">
<stop stop-color="#E4E4E4" stop-opacity="0.58"/>
<stop offset="1" stop-color="#DEDEDE"/>
</linearGradient>
<linearGradient id="paint2_linear" x1="310.602" y1="443.739" x2="310.602" y2="54.834" gradientUnits="userSpaceOnUse">
<stop stop-color="#E4E4E4" stop-opacity="0.58"/>
<stop offset="1" stop-color="#DEDEDE"/>
</linearGradient>
<linearGradient id="paint3_linear" x1="310.6" y1="401.686" x2="310.6" y2="96.8864" gradientUnits="userSpaceOnUse">
<stop stop-color="#E4E4E4" stop-opacity="0.58"/>
<stop offset="1" stop-color="#DEDEDE"/>
</linearGradient>
</defs>
</svg>
