<svg width="18" height="19" viewBox="0 0 18 19" fill="none" xmlns="http://www.w3.org/2000/svg">
<path d="M12 9.16699H14C14 7.84091 13.4732 6.56914 12.5355 5.63146C11.5979 4.69378 10.3261 4.16699 9 4.16699V6.16699C9.79565 6.16699 10.5587 6.48306 11.1213 7.04567C11.6839 7.60828 12 8.37134 12 9.16699ZM16 9.16699H18C18 4.16699 13.97 0.166992 9 0.166992V2.16699C12.86 2.16699 16 5.29699 16 9.16699ZM17 12.667C15.75 12.667 14.55 12.467 13.43 12.097C13.08 11.987 12.69 12.067 12.41 12.347L10.21 14.547C7.38 13.107 5.06 10.787 3.62 7.95699L5.82 5.75699C6.1 5.47699 6.18 5.08699 6.07 4.73699C5.7 3.61699 5.5 2.41699 5.5 1.16699C5.5 0.901776 5.39464 0.647422 5.20711 0.459885C5.01957 0.272349 4.76522 0.166992 4.5 0.166992H1C0.734784 0.166992 0.48043 0.272349 0.292893 0.459885C0.105357 0.647422 0 0.901776 0 1.16699C0 5.67567 1.79107 9.99969 4.97918 13.1878C8.1673 16.3759 12.4913 18.167 17 18.167C17.2652 18.167 17.5196 18.0616 17.7071 17.8741C17.8946 17.6866 18 17.4322 18 17.167V13.667C18 13.4018 17.8946 13.1474 17.7071 12.9599C17.5196 12.7723 17.2652 12.667 17 12.667Z" fill="white"/>
</svg>
