<svg width="19" height="24" viewBox="0 0 19 24" fill="none" xmlns="http://www.w3.org/2000/svg">
<path fill-rule="evenodd" clip-rule="evenodd" d="M9.45454 23.1111C9.45454 23.1111 18.9091 16.8081 18.9091 9.45454C18.9091 6.94704 17.913 4.54224 16.1399 2.76917C14.3668 0.996101 11.962 0 9.45454 0C6.94704 0 4.54224 0.996101 2.76917 2.76917C0.996101 4.54224 0 6.94704 0 9.45454C0 16.8081 9.45454 23.1111 9.45454 23.1111ZM12.6059 9.4546C12.6059 11.1951 11.1949 12.6061 9.45441 12.6061C7.71387 12.6061 6.30289 11.1951 6.30289 9.4546C6.30289 7.71406 7.71387 6.30308 9.45441 6.30308C11.1949 6.30308 12.6059 7.71406 12.6059 9.4546Z" fill="white"/>
</svg>
