<svg width="20" height="21" viewBox="0 0 20 21" fill="none" xmlns="http://www.w3.org/2000/svg">
<path fill-rule="evenodd" clip-rule="evenodd" d="M10 20.5C15.5229 20.5 20 16.0228 20 10.5C20 4.97716 15.5229 0.5 10 0.5C4.47715 0.5 0 4.97716 0 10.5C0 16.0228 4.47715 20.5 10 20.5ZM9.21484 14.3203C9.02213 14.5339 8.92578 14.7839 8.92578 15.0703C8.92578 15.362 9.02213 15.6146 9.21484 15.8281C9.41276 16.0417 9.67578 16.1484 10.0039 16.1484C10.332 16.1484 10.5924 16.0417 10.7852 15.8281C10.9779 15.6094 11.0742 15.3568 11.0742 15.0703C11.0742 14.7839 10.9779 14.5339 10.7852 14.3203C10.5924 14.1068 10.332 14 10.0039 14C9.67057 14 9.40755 14.1068 9.21484 14.3203ZM9.19922 4.85156V7.85938C9.19922 9.21355 9.3112 10.7552 9.53516 12.4844H10.4648C10.6888 10.7448 10.8008 9.20312 10.8008 7.85938V4.85156H9.19922Z" fill="#E12900"/>
</svg>
